# xmcd
#
# Track frame offsets:
#	150
#	18629
#	36413
#	52840
#	73947
#	86718
#	103697
#	118569
#	134575
#	149224
#	167196
#	179486
#	196378
#	213241
#	230967
#	247816
#	266658
#
# Disc length: 3798 seconds
#
# Revision: 0
# Processed by: cddbd v1.5.2PL0 Copyright (c) Steve Scherf et al.
# Submitted via: SynApp - FreeCDDB Version: 2.4
#
DISCID=0d0ed411
DTITLE=Rio Negro and Solimões - As Super Novas, Vol. 1+Bate o pé+O amor supera tudo
DYEAR=2007
DGENRE=Folk
TTITLE0=Ramon Cruz - 08 Quando a Chuva Passar
TTITLE1=Ramon Cruz - 13 Faixa 13
TTITLE2=Ramon Cruz - 14 Faixa 14
TTITLE3=Rio Negro and Solimões - 01 Só Lembranças
TTITLE4=Rio Negro and Solimões - 02 Bate o pé
TTITLE5=Rio Negro and Solimões - 05 Saudade Aperta
TTITLE6=Rio Negro and Solimões - 06 Eu menti
TTITLE7=Rio Negro and Solimões - 08 Ô de casa ô de fora
TTITLE8=Rio Negro and Solimões - 10 Uai Uai
TTITLE9=Rio Negro and Solimões - 13 Pororoca
TTITLE10=Rio Negro and Solimões - 01 Feriado Nacional
TTITLE11=Rio Negro and Solimões - 03 PARABÉNS PRO NOSSO AMOR
TTITLE12=Rio Negro and Solimões - 06 Vida Vazia
TTITLE13=Rio Negro and Solimões - 08 Dor e Saudade
TTITLE14=Rio Negro and Solimões - 10 Como eu te amo
TTITLE15=Rio Negro and Solimões - 13 Agarrada em mim
TTITLE16=Rio Negro and Solimões - 14 Mais uma vez
EXTD=
EXTT0=
EXTT1=
EXTT2=
EXTT3=
EXTT4=
EXTT5=
EXTT6=
EXTT7=
EXTT8=
EXTT9=
EXTT10=
EXTT11=
EXTT12=
EXTT13=
EXTT14=
EXTT15=
EXTT16=
PLAYORDER=
